<?xml version="1.0" encoding="UTF-8"?>
<svg id="Layer_1" xmlns="http://www.w3.org/2000/svg" version="1.1" viewBox="0 0 247.4 40">
  <!-- Generator: Adobe Illustrator 29.3.1, SVG Export Plug-In . SVG Version: 2.1.0 Build 151)  -->
  <defs>
    <style>
      .st0 {
        fill: none;
        opacity: .5;
        stroke: #fff;
      }

      .st1 {
        fill: #0d4d88;
      }

      .st2 {
        fill: #fff;
      }

      .st3 {
        fill: #4fb9bd;
      }

      .st4 {
        fill: #90c06a;
      }
    </style>
  </defs>
  <path id="Path_155" class="st0" d="M136.4,0v40"/>
  <path id="Path_276" class="st2" d="M44.1,28h1.7v-6.4c0-1.5,1.1-2.7,2.5-2.8h.2c1.4,0,2.2.8,2.2,2.6v6.6h1.7v-6.4c0-1.5,1.1-2.7,2.5-2.8h.2c1.4,0,2.2.8,2.2,2.6v6.6h1.7v-6.5c0-3-1.6-4.2-3.5-4.2-1.5,0-2.8.7-3.6,2-.5-1.3-1.7-2.1-3.1-2-1.3,0-2.5.6-3.1,1.8v-1.6h-1.7s0,10.5,0,10.5ZM65.1,28.2c1.3,0,2.5-.5,3.3-1.5v1.3h1.7v-6.9c0-2.9-1.8-3.7-3.8-3.7s-3.9.9-4.1,3.3h1.7c.2-1.3,1-1.9,2.4-1.9s2.2.7,2.2,2.4v.8h-1.5c-2.7,0-5.2.8-5.2,3.2s1.5,3.1,3.5,3.1ZM65.2,26.9c-1.5,0-2-.7-2-1.8,0-1.5,1.5-2.1,3.6-2.1h1.4v1.3c0,1.6-1.3,2.5-3.1,2.5ZM71.9,31.8c2.3,0,3.2-1.2,3.2-3.2v-11.1h-1.7v11.3c0,.9-.4,1.5-1.5,1.6,0,0,0,1.4,0,1.4ZM74.2,15.4c.6,0,1.1-.5,1.1-1.1,0-.6-.5-1.1-1.1-1.1-.6,0-1.1.5-1.1,1.1,0,.6.5,1.1,1.1,1.1ZM82.9,28.2c2.4,0,4.1-1.1,4.5-3.2h-1.7c-.2,1.2-1.2,1.8-2.8,1.8s-3.3-1.3-3.4-3.7h7.9v-.5c0-3.7-2.3-5.2-4.7-5.2s-4.9,2.2-4.9,5.4v.2c0,3.2,2.1,5.3,5.1,5.3ZM79.6,21.8c.3-1.9,1.4-3,3.1-3s2.8.9,3,3h-6.1ZM93.4,28.2c2.5,0,3.8-1.3,3.8-3.2s-1.5-2.7-3.7-3.1c-1.9-.3-2.4-.7-2.4-1.7s.8-1.5,2-1.5,2,.5,2.2,1.6h1.6c-.3-2.3-1.9-3-3.8-3s-3.5,1-3.5,2.9.9,2.6,3.6,3.1c1.6.3,2.4.7,2.4,1.8s-.7,1.7-2.3,1.7-2.3-.8-2.5-2h-1.6c0,2.1,1.6,3.4,4.1,3.4ZM104.2,28.2c2.3.1,4.3-1.6,4.6-3.9h-1.5c-.1,1.5-1.5,2.7-3,2.6-2,0-3.4-1.4-3.4-3.9v-.2c0-2.5,1.5-4,3.4-4,1.4-.2,2.7.9,2.9,2.3h1.6c-.3-2.7-2.4-3.7-4.5-3.7s-5.1,2.3-5.1,5.1v.4c-.2,2.7,1.9,5.1,4.6,5.3.2,0,.3,0,.5,0h0ZM115.8,26.8c-2.1,0-3.4-1.6-3.4-3.9v-.2c0-2.4,1.3-4,3.4-4s3.4,1.6,3.4,4h0c0,2.5-1.3,4.1-3.4,4.1ZM115.7,28.2c2.8,0,5.1-2.1,5.2-4.9v-.6c.2-2.8-2-5.2-4.8-5.3h-.4c-2.8,0-5.1,2.2-5.2,5v.5c-.2,2.8,2,5.2,4.8,5.3,0,0,.3,0,.3,0Z"/>
  <path id="Rectangle_14" class="st4" d="M1.1,21.7l12.5-12.5c1.5-1.5,3.8-1.5,5.3,0h0c1.5,1.5,1.5,3.9,0,5.3l-12.5,12.5c-1.5,1.5-3.9,1.5-5.3,0h0c-1.5-1.5-1.5-3.9,0-5.3Z"/>
  <path id="Rectangle_15" class="st3" d="M13.6,21.7l12.5-12.5c1.5-1.5,3.9-1.5,5.3,0h0c1.5,1.5,1.5,3.9,0,5.3l-12.5,12.5c-1.5,1.5-3.8,1.5-5.3,0h0c-1.5-1.5-1.5-3.9,0-5.3Z"/>
  <rect id="Rectangle_16" class="st1" x="24.2" y="18.5" width="13.4" height="7.5" rx="3.8" ry="3.8" transform="translate(-6.7 28.4) rotate(-45)"/>
  <path class="st2" d="M153.4,14h4.5c4.8,0,7.2,2.6,7.2,6.7h0c0,4.2-2.4,7-7.2,7h-4.4v-13.6h0ZM157.8,25.3c2.8,0,4.1-1.5,4.1-4.4h0c0-3-1.2-4.5-4.1-4.5h-1.2v8.8h1.3,0Z"/>
  <path class="st2" d="M166.4,22.8h0c0-3.3,2.2-5.3,5.1-5.3s4.9,1.5,4.9,5.1v.8h-7.2c0,1.7,1,2.6,2.5,2.6s1.9-.5,2.1-1.4h2.6c-.3,2.2-2,3.4-4.8,3.4s-5.2-1.9-5.2-5.1h0ZM173.8,21.6c-.1-1.5-.9-2.2-2.2-2.2s-2.1.8-2.3,2.2h4.5,0Z"/>
  <path class="st2" d="M177.1,17.7h3l2.4,7.1,2.4-7.1h2.7l-3.6,10h-3.1l-3.6-10Z"/>
  <path class="st2" d="M188.3,23.4h3c.1,1.2.6,2.2,2.7,2.2s2.2-.7,2.2-1.8-.6-1.5-2.6-1.8c-3.5-.5-4.9-1.5-4.9-4.1s1.9-4.1,5-4.1,4.9,1.4,5.1,4.1h-2.8c-.2-1.2-.9-1.8-2.3-1.8s-2,.6-2,1.5.4,1.4,2.5,1.7c3.3.4,5,1.3,5,4.1s-2,4.4-5.2,4.4-5.5-1.8-5.6-4.5h0Z"/>
  <path class="st2" d="M201.6,24.7v-5.1h-1.3v-2h1.3v-2.2h2.8v2.2h2.1v2h-2.1v4.8c0,.8.4,1.2,1.1,1.2s.7,0,1.1-.2v2.1c-.4.1-.9.3-1.7.3-2.1,0-3.2-1.1-3.2-3.1h0Z"/>
  <path class="st2" d="M208.3,24.1v-6.4h2.8v6c0,1.4.6,2,1.7,2s2.1-.7,2.1-2.2v-5.9h2.8v10h-2.8v-1.6c-.5,1-1.5,1.8-3.2,1.8s-3.4-1.1-3.4-3.8h0Z"/>
  <path class="st2" d="M219.4,22.8h0c0-3.4,1.9-5.4,4.4-5.4s2.6.7,3.1,1.7v-6h2.8v14.5h-2.8v-1.7c-.5,1-1.7,1.9-3.2,1.9-2.4,0-4.3-1.7-4.3-5.1h0ZM227,22.7h0c0-2.1-.9-3.1-2.4-3.1s-2.4,1-2.4,3h0c0,2.1.9,3.1,2.3,3.1s2.5-1,2.5-3h0Z"/>
  <path class="st2" d="M232,14.8c0-.9.7-1.5,1.6-1.5s1.6.6,1.6,1.5-.7,1.5-1.6,1.5-1.6-.6-1.6-1.5ZM232.2,17.7h2.8v10h-2.8v-10Z"/>
  <path class="st2" d="M236.9,22.8h0c0-3.3,2.3-5.3,5.3-5.3s5.2,2,5.2,5.1h0c0,3.3-2.3,5.3-5.3,5.3s-5.2-2-5.2-5.1ZM244.6,22.8h0c0-2-.9-3.2-2.4-3.2s-2.4,1.1-2.4,3h0c0,2.1.9,3.2,2.4,3.2s2.4-1.1,2.4-3Z"/>
</svg>